<svg width="24" height="24" viewBox="0 0 24 24" fill="none" xmlns="http://www.w3.org/2000/svg">
<path data-pane="true" d="M9 3H4.9726C3.88316 3 3 3.88316 3 4.9726L3 19.0274C3 20.1168 3.88317 21 4.9726 21H9V3Z" stroke="none"/>
<path d="M9 3L19.0274 3C20.1168 3 21 3.88316 21 4.9726V19.0274C21 20.1168 20.1168 21 19.0274 21H9M9 3L4.9726 3C3.88316 3 3 3.88316 3 4.9726L3 19.0274C3 20.1168 3.88317 21 4.9726 21H9M9 3V21" stroke="black" stroke-width="2" stroke-linecap="round" stroke-linejoin="round"/>
</svg>
